<?xml version="1.0" encoding="UTF-8"?>
<svg id="Layer_1" data-name="Layer 1" xmlns="http://www.w3.org/2000/svg" xmlns:xlink="http://www.w3.org/1999/xlink" viewBox="0 0 725.93 901.71">
  <defs>
    <style>
      .cls-1 {
        fill: url(#linear-gradient-2);
      }

      .cls-2 {
        fill: url(#New_Gradient_Swatch_copy_2-3);
      }

      .cls-3 {
        fill: #fff;
      }

      .cls-4 {
        fill: url(#New_Gradient_Swatch_copy_2);
      }

      .cls-5 {
        fill: url(#New_Gradient_Swatch_copy_2-2);
      }

      .cls-6 {
        fill: url(#linear-gradient);
      }
    </style>
    <linearGradient id="linear-gradient" x1="74.79" y1="837.28" x2="243.03" y2="526.03" gradientUnits="userSpaceOnUse">
      <stop offset=".01" stop-color="#57a773"/>
      <stop offset=".32" stop-color="#469967"/>
      <stop offset=".92" stop-color="#1b7649"/>
      <stop offset="1" stop-color="#157145"/>
    </linearGradient>
    <linearGradient id="linear-gradient-2" x1="190.31" y1="701.74" x2="495.95" y2="-2.06" gradientUnits="userSpaceOnUse">
      <stop offset="0" stop-color="#15ab45"/>
      <stop offset=".56" stop-color="#157145"/>
    </linearGradient>
    <linearGradient id="New_Gradient_Swatch_copy_2" data-name="New Gradient Swatch copy 2" x1="133.29" y1="676.98" x2="438.92" y2="-26.82" gradientUnits="userSpaceOnUse">
      <stop offset=".09" stop-color="#57a773"/>
      <stop offset=".84" stop-color="#57a773"/>
    </linearGradient>
    <linearGradient id="New_Gradient_Swatch_copy_2-2" data-name="New Gradient Swatch copy 2" x1="249.21" y1="727.32" x2="554.85" y2="23.52" xlink:href="#New_Gradient_Swatch_copy_2"/>
    <linearGradient id="New_Gradient_Swatch_copy_2-3" data-name="New Gradient Swatch copy 2" x1="-10.87" y1="614.37" x2="294.76" y2="-89.43" xlink:href="#New_Gradient_Swatch_copy_2"/>
  </defs>
  <path class="cls-6" d="M399.65,880.53c-16.3,28.24-57.07,28.24-73.37,0l-160.27-277.6L5.74,325.33c-16.3-28.24,4.08-63.54,36.68-63.54h641.09c32.61,0,52.99,35.3,36.69,63.54l-160.27,277.6-160.27,277.6Z"/>
  <path class="cls-1" d="M362.97,626.46c84.94,0,163.36-27.88,226.64-74.95l130.58-226.18c16.3-28.24-4.08-63.54-36.68-63.54H42.42c-32.61,0-52.99,35.3-36.69,63.54l130.58,226.18c63.29,47.08,141.71,74.95,226.64,74.95Z"/>
  <path class="cls-4" d="M378.19,261.79v-43.24c0-19.71,6.82-39.33,20.92-53.1,11.68-11.4,17.95-28.26,14.49-46.59-3.75-19.91-19.58-36.2-39.39-40.39-33.4-7.05-62.84,18.23-62.84,50.4,0,13.98,5.6,26.58,14.66,35.81,13.49,13.73,21.7,31.76,21.7,51.01v46.1h30.45Z"/>
  <path class="cls-5" d="M532.76,141.26c0-19.71,6.82-39.33,20.92-53.1,11.68-11.4,17.95-28.26,14.49-46.59-3.75-19.91-19.58-36.2-39.39-40.39-33.4-7.05-62.84,18.23-62.84,50.4,0,13.98,5.6,26.58,14.66,35.8,13.49,13.73,21.7,31.76,21.7,51.02v123.38s30.45,0,30.45,0v-120.53Z"/>
  <path class="cls-2" d="M223.63,141.26c0-19.71,6.82-39.33,20.92-53.1,11.68-11.4,17.95-28.26,14.49-46.59-3.75-19.91-19.57-36.2-39.39-40.39-33.4-7.05-62.84,18.23-62.84,50.4,0,13.98,5.6,26.58,14.66,35.8,13.49,13.73,21.7,31.76,21.7,51.02v123.38s30.45,0,30.45,0v-120.53Z"/>
  <path class="cls-3" d="M326.82,466.31c-11.68,11.4-17.94,28.26-14.5,46.58,3.75,19.91,19.57,36.21,39.39,40.39,33.4,7.06,62.84-18.23,62.84-50.4,0-13.98-5.6-26.58-14.66-35.8-13.49-13.73-21.7-31.76-21.7-51.01v-154.29s-15.22,0-15.22,0h-15.23v151.43c0,19.71-6.82,39.33-20.92,53.09Z"/>
  <path class="cls-3" d="M481.38,389.03c-11.68,11.4-17.94,28.26-14.5,46.58,3.75,19.91,19.57,36.21,39.39,40.39,33.4,7.06,62.84-18.23,62.84-50.4,0-13.98-5.6-26.58-14.66-35.8-13.49-13.73-21.7-31.76-21.7-51.01v-77.01h-30.45v74.15c0,19.71-6.82,39.33-20.92,53.09Z"/>
  <path class="cls-3" d="M172.25,389.03c-11.68,11.4-17.94,28.26-14.5,46.58,3.75,19.91,19.57,36.21,39.39,40.39,33.4,7.06,62.84-18.23,62.84-50.4,0-13.98-5.6-26.58-14.66-35.8-13.49-13.73-21.7-31.76-21.7-51.01v-77.01h-30.45v74.15c0,19.71-6.82,39.33-20.92,53.09Z"/>
</svg>